<svg xmlns="http://www.w3.org/2000/svg" xmlns:xlink="http://www.w3.org/1999/xlink" width="96" height="96" viewBox="3 6 43 40"><defs><linearGradient xlink:href="#a" id="q" gradientUnits="userSpaceOnUse" x1="24.313" y1="22.969" x2="24.313" y2="41.031"/><linearGradient id="i"><stop style="stop-color:#181818;stop-opacity:0" offset="0"/><stop style="stop-color:#181818;stop-opacity:1" offset=".5"/><stop style="stop-color:#181818;stop-opacity:0" offset="1"/></linearGradient><linearGradient xlink:href="#b" id="p" gradientUnits="userSpaceOnUse" gradientTransform="matrix(0 .3705 -.36175 0 33.508 6.167)" x1="7.649" y1="26.437" x2="41.862" y2="26.437"/><linearGradient id="b"><stop style="stop-color:#fff;stop-opacity:1" offset="0"/><stop style="stop-color:#fff;stop-opacity:0" offset="1"/></linearGradient><linearGradient xlink:href="#c" id="o" gradientUnits="userSpaceOnUse" gradientTransform="translate(0 1)" x1="24" y1="5" x2="24" y2="43"/><linearGradient id="c"><stop style="stop-color:#fff;stop-opacity:1" offset="0"/><stop style="stop-color:#fff;stop-opacity:0" offset="1"/></linearGradient><linearGradient x1="25.058" y1="47.028" x2="25.058" y2="39.999" id="l" xlink:href="#i" gradientUnits="userSpaceOnUse"/><linearGradient id="d"><stop style="stop-color:#fafafa;stop-opacity:1" offset="0"/><stop style="stop-color:#e6e6e6;stop-opacity:1" offset="1"/></linearGradient><linearGradient id="a"><stop style="stop-color:#fff;stop-opacity:1" offset="0"/><stop style="stop-color:#fff;stop-opacity:0" offset="1"/></linearGradient><linearGradient id="e"><stop offset="0" style="stop-color:#a3c0d0;stop-opacity:1"/><stop offset="1" style="stop-color:#427da1;stop-opacity:1"/></linearGradient><linearGradient id="f"><stop offset="0" style="stop-color:#2e4a5a;stop-opacity:1"/><stop offset="1" style="stop-color:#6e8796;stop-opacity:1"/></linearGradient><linearGradient id="h"><stop style="stop-color:#181818;stop-opacity:1" offset="0"/><stop style="stop-color:#181818;stop-opacity:0" offset="1"/></linearGradient><linearGradient id="g"><stop style="stop-color:#181818;stop-opacity:1" offset="0"/><stop style="stop-color:#181818;stop-opacity:0" offset="1"/></linearGradient><radialGradient cx="4.993" cy="43.5" r="2.5" fx="4.993" fy="43.5" id="k" xlink:href="#h" gradientUnits="userSpaceOnUse" gradientTransform="matrix(2.00378 0 0 1.4 -20.012 -104.4)"/><radialGradient cx="4.993" cy="43.5" r="2.5" fx="4.993" fy="43.5" id="j" xlink:href="#g" gradientUnits="userSpaceOnUse" gradientTransform="matrix(2.00378 0 0 1.4 27.988 -17.4)"/><radialGradient xlink:href="#d" id="n" gradientUnits="userSpaceOnUse" gradientTransform="matrix(0 1.0262 -1.65611 .00094 -56.097 -45.332)" cx="48.424" cy="-48.028" fx="48.424" fy="-48.028" r="38.213"/><radialGradient xlink:href="#e" id="m" gradientUnits="userSpaceOnUse" gradientTransform="matrix(0 2.04788 -2.74105 0 47.161 -8.837)" cx="9.333" cy="8.45" fx="9.333" fy="8.45" r="20"/></defs><g style="display:inline"><g style="opacity:.4"><path style="fill:url(#j);fill-opacity:1;stroke:none" d="M38 40h5v7h-5z" transform="matrix(1.1579 0 0 .57143 -3.79 19.143)"/><path style="fill:url(#k);fill-opacity:1;stroke:none" transform="matrix(-1.1579 0 0 -.57143 -3.79 19.143)" d="M-10-47h5v7h-5z"/><path style="fill:url(#l);fill-opacity:1;stroke:none" d="M10 40h28v7H10z" transform="matrix(1.1579 0 0 .57143 -3.79 19.143)"/></g></g><rect style="fill:url(#m);fill-opacity:1;stroke:url(#linearGradient2992);stroke-width:1;stroke-linecap:round;stroke-linejoin:round;stroke-miterlimit:4;stroke-opacity:1;stroke-dasharray:none;stroke-dashoffset:0" y="5.467" x="4.5" ry="2.232" rx="2.232" height="39" width="39"/><path style="opacity:.05;fill:#000;fill-opacity:1;fill-rule:nonzero;stroke:none;stroke-width:1.00178742;marker:none;visibility:visible;display:inline;overflow:visible;enable-background:accumulate" d="M21 6.969A2.017 2.017 0 0 0 18.969 9v3.969h-1.157a2.017 2.017 0 0 0-1.5 3.375l5.063 5.75c-.063.11-.179.246-.219.343-.196.479-.25.837-.25 1.22v.124l-.093-.093a3.037 3.037 0 0 0-1.094-.72 2.188 2.188 0 0 0-.969-.155c-.435.02-1.054.21-1.469.625l-1.531 1.53c-.415.415-.604 1.034-.625 1.47-.02.435.06.721.156.968.194.495.44.816.719 1.094l.094.094h-.125c-.382 0-.74.054-1.219.25-.24.098-.538.215-.844.531-.305.316-.625.915-.625 1.531v2.188c0 .616.32 1.215.625 1.531.306.316.605.433.844.531.478.196.837.25 1.219.25h.125L16 35.5c-.278.278-.525.6-.719 1.094a2.188 2.188 0 0 0-.156.968c.02.436.21 1.055.625 1.47l1.531 1.53c.415.415 1.034.605 1.469.626.435.02.722-.06.969-.157.494-.194.815-.44 1.093-.718l.094-.094v.125c0 .382.054.74.25 1.218.098.24.215.539.532.844.316.306.914.625 1.53.625h2.188c.617 0 1.215-.32 1.532-.625.316-.305.433-.604.53-.843.197-.479.25-.837.25-1.22v-.124l.095.093c.278.279.599.525 1.093.72.247.096.534.176.969.156.435-.021 1.054-.21 1.469-.626l1.531-1.53c.415-.415.604-1.034.625-1.47.02-.435-.06-.721-.156-.968a3.037 3.037 0 0 0-.719-1.094l-.094-.094h.125c.382 0 .74-.054 1.219-.25.24-.098.538-.215.844-.531.305-.316.625-.915.625-1.531v-2.188c0-.616-.32-1.215-.625-1.531-.306-.316-.605-.433-.844-.531a3.003 3.003 0 0 0-1.219-.25h-.125l.094-.094c.278-.278.525-.6.719-1.094.097-.247.177-.533.156-.968-.02-.436-.21-1.055-.625-1.47l-1.531-1.53c-.415-.415-1.034-.605-1.469-.625-.435-.021-.722.059-.969.156-.494.194-.815.44-1.093.718l-.094.094v-.125c0-.382-.054-.74-.25-1.218a2.367 2.367 0 0 0-.5-.782l4.718-5.312a2.017 2.017 0 0 0-1.5-3.375h-1.156V9A2.017 2.017 0 0 0 27 6.969h-6zm3.313 24.281c.427 0 .75.323.75.75s-.323.75-.75.75a.734.734 0 0 1-.75-.75c0-.427.322-.75.75-.75z"/><path style="opacity:.05;fill:#000;fill-opacity:1;fill-rule:nonzero;stroke:none;stroke-width:1.00178742;marker:none;visibility:visible;display:inline;overflow:visible;enable-background:accumulate" d="M20.906 8.031a.964.964 0 0 0-.875.969v5.031h-2.218a.964.964 0 0 0-.72 1.594l5.782 6.531c-.159.062-.342.095-.438.188-.169.163-.252.323-.312.468-.12.291-.156.567-.156.844v1.657c-.25.09-.483.197-.719.312l-1.188-1.188c-.2-.2-.42-.352-.718-.468a1.32 1.32 0 0 0-.563-.094c-.233.011-.536.098-.75.313l-1.531 1.53c-.214.215-.301.518-.313.75a1.32 1.32 0 0 0 .094.563c.117.298.27.52.469.719l1.188 1.188a7.028 7.028 0 0 0-.313.718h-1.656c-.277 0-.553.037-.844.157-.145.059-.305.143-.469.312-.163.17-.312.464-.312.781v2.188c0 .317.149.612.312.781.164.17.324.253.469.313.29.119.567.156.844.156h1.656c.09.25.197.483.313.718L16.75 36.25c-.2.2-.352.421-.469.719a1.32 1.32 0 0 0-.093.562c.01.233.098.536.312.75l1.531 1.532c.214.214.517.3.75.312a1.32 1.32 0 0 0 .563-.094c.297-.116.519-.269.718-.468l1.188-1.188c.236.115.468.223.719.313v1.656c0 .277.037.553.156.843.06.146.143.306.313.47.169.163.464.312.78.312h2.188c.317 0 .612-.15.782-.313.169-.163.252-.323.312-.468.12-.291.156-.567.156-.844v-1.657c.25-.09.483-.197.719-.312l1.188 1.188c.2.2.42.352.718.468.149.059.33.105.563.094.233-.011.536-.098.75-.313l1.531-1.53c.214-.215.301-.518.313-.75a1.32 1.32 0 0 0-.094-.563 2.019 2.019 0 0 0-.469-.719l-1.188-1.188c.116-.235.223-.468.313-.718h1.656c.277 0 .553-.037.844-.157.145-.059.305-.143.469-.312.163-.17.312-.464.312-.781v-2.188c0-.317-.149-.612-.312-.781a1.305 1.305 0 0 0-.469-.313 2.162 2.162 0 0 0-.844-.156H31a7.027 7.027 0 0 0-.313-.718l1.188-1.188c.2-.2.352-.421.469-.719a1.32 1.32 0 0 0 .093-.562c-.01-.233-.098-.536-.312-.75l-1.531-1.532c-.214-.214-.517-.3-.75-.312a1.32 1.32 0 0 0-.563.094c-.297.116-.519.269-.718.468l-1.188 1.188a7.028 7.028 0 0 0-.719-.313v-1.656c0-.277-.037-.553-.156-.843a1.305 1.305 0 0 0-.313-.47 1.176 1.176 0 0 0-.78-.312h-.157l5.656-6.406a.964.964 0 0 0-.718-1.594h-2.22V9A.964.964 0 0 0 27 8.031h-6a.964.964 0 0 0-.094 0zm3.407 22.157c1.002 0 1.812.81 1.812 1.812s-.81 1.813-1.813 1.813A1.811 1.811 0 0 1 22.5 32c0-1.002.81-1.813 1.813-1.813z"/><path style="fill:url(#n);fill-opacity:1;fill-rule:nonzero;stroke:none;stroke-width:1.00178742;marker:none;visibility:visible;display:inline;overflow:visible;enable-background:accumulate" d="M21 9v6h-3.188L24 22l6.188-7H27V9h-6zm2.219 14c-.173 0-.282.295-.282.656v2.282A6.233 6.233 0 0 0 21 26.75l-1.625-1.625c-.255-.255-.534-.372-.656-.25l-1.532 1.531c-.122.123-.005.401.25.657l1.625 1.625a6.233 6.233 0 0 0-.812 1.937h-2.281c-.362 0-.656.108-.656.281v2.188c0 .173.294.281.656.281h2.281c.158.696.442 1.352.813 1.938l-1.625 1.624c-.256.256-.373.534-.25.657l1.53 1.531c.123.122.402.005.657-.25L21 37.25c.586.37 1.241.654 1.938.813v2.28c0 .362.108.657.28.657h2.188c.173 0 .282-.295.282-.656v-2.282a6.233 6.233 0 0 0 1.937-.812l1.625 1.625c.255.255.534.372.656.25l1.532-1.531c.122-.123.005-.401-.25-.657l-1.625-1.624c.37-.586.654-1.242.812-1.938h2.281c.362 0 .657-.108.657-.281v-2.188c0-.173-.295-.281-.657-.281h-2.281a6.233 6.233 0 0 0-.813-1.938l1.625-1.625c.256-.255.373-.533.25-.656l-1.53-1.531c-.123-.122-.402-.006-.657.25l-1.625 1.625a6.233 6.233 0 0 0-1.938-.813v-2.28c0-.362-.108-.657-.28-.657h-2.188zm1.093 6.219A2.79 2.79 0 0 1 27.095 32a2.79 2.79 0 0 1-2.782 2.781A2.79 2.79 0 0 1 21.532 32a2.79 2.79 0 0 1 2.78-2.781z"/><rect style="opacity:.4;fill:none;stroke:url(#o);stroke-width:.99999976;stroke-linecap:round;stroke-linejoin:round;stroke-miterlimit:4;stroke-opacity:1;stroke-dasharray:none;stroke-dashoffset:0" y="6.5" x="5.5" ry="1.365" rx="1.365" height="37" width="37"/><path style="fill:none;stroke:url(#p);stroke-width:.99829447;stroke-linecap:butt;stroke-linejoin:miter;stroke-miterlimit:4;stroke-opacity:1;stroke-dasharray:none;stroke-dashoffset:0;marker:none;visibility:visible;display:inline;overflow:visible" d="M28.926 15.467 24 21.177 18.963 15.5H21.5v-6h5v6l2.426-.033z"/><path style="fill:none;stroke:url(#q);stroke-width:1;stroke-opacity:1;marker:none;visibility:visible;display:inline;overflow:visible;enable-background:accumulate" d="M23.438 23.469c-.012.054-.032.1-.032.187v2.282a.482.482 0 0 1-.375.468 5.723 5.723 0 0 0-1.781.75.482.482 0 0 1-.594-.062l-1.625-1.625c-.053-.054-.083-.067-.125-.094l-1.218 1.219c.027.041.04.071.093.125l1.625 1.625a.482.482 0 0 1 .063.593 5.723 5.723 0 0 0-.75 1.782.482.482 0 0 1-.469.375h-2.281c-.088 0-.134.02-.188.031v1.75c.054.012.1.031.188.031h2.281a.482.482 0 0 1 .469.375c.145.639.407 1.239.75 1.782a.482.482 0 0 1-.063.593l-1.625 1.625c-.053.054-.066.084-.093.125l1.218 1.219c.042-.027.072-.04.125-.094l1.625-1.625a.482.482 0 0 1 .594-.062 5.723 5.723 0 0 0 1.781.75.482.482 0 0 1 .375.468v2.282c0 .087.02.133.032.187h1.75c.011-.054.03-.1.03-.187v-2.282a.482.482 0 0 1 .376-.468 5.723 5.723 0 0 0 1.781-.75.482.482 0 0 1 .594.062l1.625 1.625c.053.054.083.067.125.094l1.218-1.219c-.027-.041-.04-.071-.093-.125l-1.625-1.625a.482.482 0 0 1-.063-.593 5.723 5.723 0 0 0 .75-1.782.482.482 0 0 1 .469-.375h2.281c.088 0 .134-.02.188-.031v-1.75c-.054-.012-.1-.031-.188-.031h-2.281a.482.482 0 0 1-.469-.375 5.723 5.723 0 0 0-.75-1.782.482.482 0 0 1 .063-.593l1.625-1.625c.053-.054.066-.084.093-.125l-1.218-1.219c-.042.027-.072.04-.125.094l-1.625 1.625a.482.482 0 0 1-.594.062 5.723 5.723 0 0 0-1.781-.75.482.482 0 0 1-.375-.468v-2.282c0-.087-.02-.133-.032-.187h-1.75zm.875 5.281a3.254 3.254 0 0 1 3.25 3.25 3.254 3.254 0 0 1-3.25 3.25 3.254 3.254 0 0 1-3.25-3.25 3.254 3.254 0 0 1 3.25-3.25z"/></svg>
